<svg width="102" height="121" viewBox="0 0 102 121" fill="none" xmlns="http://www.w3.org/2000/svg">
<path d="M39.1429 74.5072C39.4558 74.1325 40.0145 74.0819 40.3899 74.3942C40.7653 74.7065 40.816 75.2641 40.5031 75.6388L36.0784 80.9381L31.6536 86.2373C31.4944 86.4279 31.2616 86.5426 31.0132 86.5539C30.7649 86.565 30.5235 86.4714 30.3478 86.296L25.038 80.9967C24.6924 80.6518 24.6924 80.0927 25.038 79.7478C25.3836 79.4029 25.9438 79.4029 26.2894 79.7478L30.913 84.3622L39.1429 74.5072Z" fill="#3D2C61"/>
<path d="M71.2389 74.1898C71.9721 74.1898 72.5664 74.7829 72.5664 75.5146C72.5664 76.2463 71.9721 76.8394 71.2389 76.8394H49.5H47.3451C46.612 76.8394 46.0177 76.2463 46.0177 75.5146C46.0177 74.7829 46.612 74.1898 47.3451 74.1898H49.5H71.2389Z" fill="#3D2C61"/>
<path d="M63.2743 83.0219C64.0075 83.0219 64.6018 83.615 64.6018 84.3467C64.6018 85.0784 64.0075 85.6715 63.2743 85.6715H49.5H47.3451C46.612 85.6715 46.0177 85.0784 46.0177 84.3467C46.0177 83.615 46.612 83.0219 47.3451 83.0219H49.5H63.2743Z" fill="#3D2C61"/>
<path fill-rule="evenodd" clip-rule="evenodd" d="M49.5 27.6173V6.87011L48.6726 6.52121L25.106 16.4584L6.63717 13.8626V60.3681C6.63717 79.6112 17.1565 97.3676 34.175 106.851L49.0796 115.156L49.5 114.918V85.6715H47.3451C46.612 85.6715 46.0177 85.0784 46.0177 84.3467C46.0177 83.615 46.612 83.0219 47.3451 83.0219H49.5V76.8394H47.3451C46.612 76.8394 46.0177 76.2463 46.0177 75.5146C46.0177 74.7829 46.612 74.1898 47.3451 74.1898H49.5V68.6528C49.2257 68.6583 48.9499 68.6611 48.6726 68.6611C35.3913 68.6611 25.484 62.3333 18.9298 49.7595C18.6669 49.2525 18.5305 48.6988 18.5305 48.1382C18.5305 47.5775 18.6669 47.0238 18.9298 46.5169C25.484 33.9368 35.3844 27.609 48.6726 27.609C48.9498 27.609 49.2257 27.6117 49.5 27.6173ZM40.3899 74.3942C40.0145 74.0819 39.4558 74.1325 39.1429 74.5072L30.913 84.3622L26.2894 79.7478C25.9438 79.4029 25.3836 79.4029 25.038 79.7478C24.6924 80.0927 24.6924 80.6518 25.038 80.9967L30.3478 86.296C30.5235 86.4714 30.7649 86.565 31.0132 86.5539C31.2616 86.5426 31.4944 86.4279 31.6536 86.2373L36.0784 80.9381L40.5031 75.6388C40.816 75.2641 40.7653 74.7065 40.3899 74.3942Z" fill="#FEFEFE"/>
<path d="M69.0266 34.4969V15.1038L49.5 6.87011V27.6173C57.1512 27.7711 63.6587 30.0697 69.0266 34.4969Z" fill="#B3E4F5"/>
<path fill-rule="evenodd" clip-rule="evenodd" d="M90.708 13.8626L83.8964 14.8199C83.9067 14.9045 83.9076 14.9901 83.8991 15.0753L83.4484 22.4363C83.431 22.6109 83.3492 22.7728 83.2189 22.8905C83.0886 23.0082 82.9191 23.0734 82.7434 23.0734C82.5676 23.0734 82.3981 23.0082 82.2678 22.8905C82.1375 22.7728 82.0557 22.6109 82.0383 22.4363L81.5919 15.1438L72.239 16.4584L71.6077 16.1922V29.5245H90.708V22.47L89.4174 20.4716L90.708 18.4732V13.8626ZM81.9221 24.5726C81.7042 24.79 81.5819 25.0849 81.5819 25.3923C81.5819 25.6998 81.7042 25.9946 81.9221 26.212C82.1399 26.4294 82.4353 26.5516 82.7434 26.5516C83.0514 26.5516 83.3469 26.4294 83.5647 26.212C83.7825 25.9946 83.9049 25.6998 83.9049 25.3923C83.9049 25.0849 83.7825 24.79 83.5647 24.5726C83.3469 24.3553 83.0514 24.2331 82.7434 24.2331C82.4353 24.2331 82.1399 24.3553 81.9221 24.5726Z" fill="#DD544A"/>
<path d="M23.5965 48.135C29.3556 58.9773 37.5207 64.1277 48.6726 64.1277C48.9502 64.1277 49.226 64.1245 49.5 64.1181L49.8609 61.5C49.4127 61.5376 48.9587 61.5569 48.5 61.5569C40.2159 61.5569 33.5 55.2887 33.5 47.5569C33.5 39.825 40.2159 33.5569 48.5 33.5569C48.9587 33.5569 49.4127 33.5761 49.8609 33.6137L49.5 32.1519C49.226 32.1455 48.9502 32.1423 48.6726 32.1423C37.5207 32.1423 29.3556 37.2928 23.5965 48.135Z" fill="white"/>
<path d="M73.7486 48.135C68.1329 37.5627 60.2295 32.4023 49.5 32.1519L49.8609 33.6137C57.5073 34.2556 63.5 40.2532 63.5 47.5569C63.5 54.8605 57.5073 60.8582 49.8609 61.5L49.5 64.1181C60.2361 63.8679 68.1395 58.7075 73.7486 48.135Z" fill="white"/>
<path d="M63.5328 106.957C80.3476 97.4186 90.708 79.7746 90.708 60.6783V32.1111H71.6077V36.8797C74.1793 39.5259 76.4483 42.737 78.4154 46.5106C78.9477 47.5495 78.9477 48.7332 78.4154 49.7532C71.9979 62.0708 62.3725 68.3943 49.5 68.6528V74.1898H71.2389C71.9721 74.1898 72.5664 74.7829 72.5664 75.5146C72.5664 76.2463 71.9721 76.8394 71.2389 76.8394H49.5V83.0219H63.2743C64.0075 83.0219 64.6018 83.615 64.6018 84.3467C64.6018 85.0784 64.0075 85.6715 63.2743 85.6715H49.5V114.918L63.5328 106.957Z" fill="#B3E4F5"/>
<path d="M95.2636 11.4187H71.6077V16.1922L72.239 16.4584L81.5919 15.1438L81.5877 15.0753C81.5715 14.9141 81.5893 14.7514 81.64 14.5975C81.6907 14.4436 81.7731 14.302 81.882 14.1819C81.9909 14.0617 82.1238 13.9657 82.2722 13.9C82.4205 13.8343 82.581 13.8003 82.7434 13.8003C82.9057 13.8003 83.0662 13.8343 83.2145 13.9C83.3629 13.9657 83.4958 14.0617 83.6047 14.1819C83.7136 14.302 83.7961 14.4436 83.8468 14.5975C83.8707 14.67 83.8872 14.7445 83.8964 14.8199L90.708 13.8626V18.4732L95.2636 11.4187Z" fill="#DD544A"/>
<path d="M90.708 22.47V29.5245H95.2636L90.708 22.47Z" fill="#DD544A"/>
<path d="M71.6077 11.4187H95.2636L90.708 18.4732V22.47L95.2636 29.5245H90.708V32.1111H97.3451V27.9828L92.5148 20.4716L97.3451 12.9604V8.83212H74.2456L70.7955 9.31642L69.6454 8.83212H69.0266V15.1038L71.6077 16.1922V11.4187Z" fill="#DD544A"/>
<path d="M83.4484 22.4363L83.8991 15.0753C83.9076 14.9901 83.9067 14.9045 83.8964 14.8199L81.5919 15.1438L82.0383 22.4363C82.0557 22.6109 82.1375 22.7728 82.2678 22.8905C82.3981 23.0082 82.5676 23.0734 82.7434 23.0734C82.9191 23.0734 83.0886 23.0082 83.2189 22.8905C83.3492 22.7728 83.431 22.6109 83.4484 22.4363Z" fill="white"/>
<path d="M97.3451 8.83212V5.58952L74.2456 8.83212H97.3451Z" fill="#3D2C61"/>
<path d="M67.6555 110.476C86.0257 100.068 97.3451 80.8159 97.3451 59.9795V32.1111H90.708V60.6783C90.708 79.7746 80.3476 97.4186 63.5328 106.957L49.5 114.918L49.0796 115.156L34.175 106.851C17.1565 97.3676 6.63717 79.6112 6.63717 60.3681V13.8626L25.106 16.4584L48.6726 6.52121L49.5 6.87011V0.34845L48.6726 0L26.5498 9.31642L0 5.58952V59.7105C0 80.7077 11.4926 100.082 30.0858 110.43L49.0796 121L67.6555 110.476Z" fill="#3D2C61"/>
<path d="M97.3451 27.9828V12.9604L92.5148 20.4716L97.3451 27.9828Z" fill="#3D2C61"/>
<path d="M49.5 6.87011L69.0266 15.1038V8.83212H69.6454L49.5 0.34845V6.87011Z" fill="#3D2C61"/>
<path d="M81.64 14.5975C81.5893 14.7514 81.5715 14.9141 81.5877 15.0753L81.5919 15.1438L83.8964 14.8199C83.8872 14.7445 83.8707 14.67 83.8468 14.5975C83.7961 14.4436 83.7136 14.302 83.6047 14.1819C83.4958 14.0617 83.3629 13.9657 83.2145 13.9C83.0662 13.8343 82.9057 13.8003 82.7434 13.8003C82.581 13.8003 82.4205 13.8343 82.2722 13.9C82.1238 13.9657 81.9909 14.0617 81.882 14.1819C81.7731 14.302 81.6907 14.4436 81.64 14.5975Z" fill="white"/>
<path d="M71.6077 32.1111H90.708V29.5245H71.6077V16.1922L69.0266 15.1038V34.4969C69.9184 35.2324 70.7787 36.0267 71.6077 36.8797V32.1111Z" fill="#DD544A"/>
<path d="M97.3451 12.9604L100 8.83212H97.3451V12.9604Z" fill="#DD544A"/>
<path d="M97.3451 32.1111H100L97.3451 27.9828V32.1111Z" fill="#DD544A"/>
<path d="M74.2456 8.83212H69.6454L70.7955 9.31642L74.2456 8.83212Z" fill="#DD544A"/>
<path d="M69.0266 40.6277H71.6077V36.8797C70.7787 36.0267 69.9184 35.2324 69.0266 34.4969V40.6277Z" fill="#3D2C61"/>
<path d="M81.5819 25.3923C81.5819 25.0849 81.7042 24.79 81.9221 24.5726C82.1399 24.3553 82.4353 24.2331 82.7434 24.2331C83.0514 24.2331 83.3469 24.3553 83.5647 24.5726C83.7825 24.79 83.9049 25.0849 83.9049 25.3923C83.9049 25.6998 83.7825 25.9946 83.5647 26.212C83.3469 26.4294 83.0514 26.5516 82.7434 26.5516C82.4353 26.5516 82.1399 26.4294 81.9221 26.212C81.7042 25.9946 81.5819 25.6998 81.5819 25.3923Z" fill="white"/>
<path d="M89.4174 20.4716L90.708 22.47V18.4732L89.4174 20.4716Z" fill="#DD544A"/>
<path fill-rule="evenodd" clip-rule="evenodd" d="M71.6077 40.6277V36.8797C74.1793 39.5259 76.4483 42.737 78.4154 46.5106C78.9477 47.5495 78.9477 48.7332 78.4154 49.7532C71.9979 62.0708 62.3725 68.3943 49.5 68.6528C49.2257 68.6583 48.9499 68.6611 48.6726 68.6611C35.3913 68.6611 25.484 62.3333 18.9298 49.7595C18.6669 49.2525 18.5305 48.6988 18.5305 48.1382C18.5305 47.5775 18.6669 47.0238 18.9298 46.5169C25.484 33.9368 35.3844 27.609 48.6726 27.609C48.9498 27.609 49.2257 27.6117 49.5 27.6173C57.1512 27.7711 63.6587 30.0697 69.0266 34.4969V40.6277H71.6077ZM48.6726 64.1277C37.5207 64.1277 29.3556 58.9773 23.5965 48.135C29.3556 37.2928 37.5207 32.1423 48.6726 32.1423C48.9502 32.1423 49.226 32.1455 49.5 32.1519C60.2295 32.4023 68.1329 37.5627 73.7486 48.135C68.1395 58.7075 60.2361 63.8679 49.5 64.1181C49.226 64.1245 48.9502 64.1277 48.6726 64.1277Z" fill="#3D2C61"/>
<path d="M48.5 33.5569C40.2159 33.5569 33.5 39.825 33.5 47.5569C33.5 55.2887 40.2159 61.5569 48.5 61.5569C48.9587 61.5569 49.4127 61.5376 49.8609 61.5L49.8609 44.954C49.0397 44.3869 48.5 43.425 48.5 42.3328C48.5 41.2406 49.0397 40.2787 49.8609 39.7116V33.6137C49.4127 33.5761 48.9587 33.5569 48.5 33.5569Z" fill="#76B3DF"/>
<path d="M51.5818 39.1744C53.2851 39.1744 54.6636 40.5872 54.6636 42.3328C54.6636 44.0784 53.2851 45.4912 51.5818 45.4912C50.9443 45.4912 50.3522 45.2933 49.8609 44.954L49.8609 61.5C57.5073 60.8582 63.5 54.8605 63.5 47.5569C63.5 40.2532 57.5073 34.2556 49.8609 33.6137V39.7116C50.3522 39.3724 50.9443 39.1744 51.5818 39.1744Z" fill="#76B3DF"/>
<path d="M59.1064 47.3863C59.1064 52.9681 54.4151 57.4931 48.6282 57.4931C42.8412 57.4931 38.15 52.9681 38.15 47.3863C38.15 41.8044 42.8412 37.2794 48.6282 37.2794C54.4151 37.2794 59.1064 41.8044 59.1064 47.3863Z" fill="#3D2C61"/>
<circle cx="52" cy="42" r="4" fill="white"/>
<path d="M44.5 69C61 69.5 70.5 65.5 79 48C78.1667 45.3333 76 40.5 72 37V32H100L92.5 20.5L100 9H68.5V33.5C65.5 31.1667 60 27 45 27" stroke="white" stroke-width="1.4"/>
</svg>
